<?xml version="1.0" encoding="utf-8"?>
<!-- Generator: Adobe Illustrator 25.2.3, SVG Export Plug-In . SVG Version: 6.00 Build 0)  -->
<svg version="1.1" id="Layer_1" xmlns="http://www.w3.org/2000/svg" xmlns:xlink="http://www.w3.org/1999/xlink" x="0px" y="0px"
	 viewBox="0 0 112 120" style="enable-background:new 0 0 112 120;" xml:space="preserve">
<style type="text/css">
	.st0{fill:#26BFA6;}
	.st1{fill:#FFCC66;}
	.st2{fill:#F25555;}
	.st3{fill:#FFCCB3;}
	.st4{fill:#E77B45;}
</style>
<g id="Clubs" transform="translate(-16)">
	<path id="Path_69429" class="st0" d="M45,95.5l16.1-9.3L54.1,74L47,61.7l-16.2,9.4c-0.5-2.5-0.7-5.1-0.7-7.7c0-6.2,1.4-12.4,4.1-18
		L22,38.2c-13.9,28.1-2.3,62.2,25.8,76c6.6,3.3,13.8,5.2,21.1,5.7v-14.5C60.1,104.7,51.7,101.2,45,95.5z"/>
	<path id="Path_69430" class="st0" d="M68.9,120v-14.5c-8.8-0.7-17.2-4.2-23.9-10l16.1-9.3L54.1,74L23.6,91.5
		C33,108,50,118.7,68.9,120z"/>
	<path id="Path_69431" class="st1" d="M122.1,38.3l-12.3,7.1c2.7,5.6,4.1,11.7,4.1,17.9c0,2.6-0.2,5.2-0.7,7.7L97,61.7L89.9,74
		l-7.1,12.2L99,95.5c-6.7,5.8-15.1,9.3-23.9,10V120c29.7-2.2,52.8-26.9,52.9-56.7C128,54.6,126,46.1,122.1,38.3z"/>
	<path id="Path_69432" class="st1" d="M122.1,38.4l-12.3,7.1c2.7,5.6,4.1,11.7,4.1,17.9c0,2.6-0.2,5.2-0.7,7.7L97,61.9l-7.1,12.2
		l30.5,17.6c5-8.6,7.6-18.3,7.6-28.2C128,54.8,126,46.2,122.1,38.4z"/>
	<g id="Group_9662" transform="translate(25.452)">
		<path id="Path_69433" class="st2" d="M46.5,7.3C28.6,7.3,11.2,15.8,0,32.5l12.2,7.1c5-7.3,12.1-12.8,20.4-15.7v18.7h28V23.9
			c8.3,3,15.5,8.5,20.4,15.8l12.2-7.1C84.4,18.4,66.7,7.3,46.5,7.3z"/>
		<path id="Path_69434" class="st2" d="M60.2,23.9c8.4,3,15.6,8.5,20.6,15.8l12.3-7.1c-8.8-14.2-26.6-25.3-47-25.3v35.3h14.1V23.9z"
			/>
		<path id="Path_69435" class="st3" d="M46.5,0C40.7,0.1,36,4.9,36,10.8c0,5.8,4.7,10.6,10.6,10.6s10.6-4.7,10.6-10.6
			C57.1,4.9,52.4,0.1,46.5,0z"/>
		<path id="Path_69436" class="st3" d="M57.1,10.8c0-5.9-4.7-10.7-10.6-10.8v21.4C52.3,21.4,57.1,16.7,57.1,10.8z"/>
	</g>
	<path id="Path_69437" class="st3" d="M36.3,84.3c-2.9-5-9.3-6.7-14.4-3.9c-5.1,2.8-6.9,9.3-4.1,14.4s9.3,6.9,14.4,4.1
		c0.1-0.1,0.2-0.1,0.3-0.2c5-2.9,6.8-9.2,3.9-14.2C36.4,84.4,36.3,84.3,36.3,84.3z"/>
	<path id="Path_69438" class="st3" d="M32.5,98.7c5-2.9,6.8-9.2,3.9-14.2c0-0.1-0.1-0.1-0.1-0.2L18,94.8
		C21,99.9,27.4,101.6,32.5,98.7z"/>
	<path id="Path_69439" class="st4" d="M122.1,80.3c-5.3-3-11.4-1-14.4,3.9c-2.9,5.1-1.2,11.5,3.9,14.4c5.1,2.9,11.5,1.2,14.4-3.9
		C128.9,89.7,127.1,83.3,122.1,80.3z"/>
	<path id="Path_69440" class="st4" d="M122.1,80.4c-5.3-3-11.4-1-14.4,3.9L126,94.8C128.9,89.8,127.2,83.3,122.1,80.4
		C122.1,80.4,122.1,80.4,122.1,80.4z"/>
</g>
</svg>
