<?xml version="1.0" encoding="utf-8"?>
<!-- Generator: Adobe Illustrator 22.0.0, SVG Export Plug-In . SVG Version: 6.00 Build 0)  -->
<svg version="1.1" id="Component_6_2" xmlns="http://www.w3.org/2000/svg" xmlns:xlink="http://www.w3.org/1999/xlink" x="0px"
	 y="0px" viewBox="0 0 914.9 165" style="enable-background:new 0 0 914.9 165;" xml:space="preserve">
<style type="text/css">
	.st0{fill:#FF4148;}
	.st1{fill:#FFFFFF;}
	.st2{fill:#F74148;}
</style>
<g id="Layer_2_1_">
	<g id="Layer_1" transform="translate(0 0)">
		<path id="Path_69416" class="st0" d="M297,161c-14.3-7.4-27.7-16.3-40.1-26.7c-11.9-10.1-21.5-20.7-28.6-31.5
			C218.8,88.1,214,72.9,214,57.6c0.2-15,6.1-29.4,16.6-40.1C241.2,6.4,256,0.1,271.4,0c2.1,0,4.3,0.1,6.4,0.3h0.1l1.2,0.2
			c8.6,1.1,16.8,4.1,24.1,8.8c0.7,0.4,1.3,0.9,2,1.4C315.1,3.7,326.9,0,339,0c15.4,0.1,30.1,6.4,40.8,17.6
			c10.5,10.7,16.4,25.1,16.6,40.1c0,13.1-3.5,26.2-10.5,38.9c-6.1,10.7-13.7,20.5-22.7,29c-16.2,15.9-34.5,27.1-43.9,32.3
			c-0.5,0.3-1,0.6-1.5,0.8l-0.3,0.2c-0.9,0.5-1.7,0.9-2.3,1.2l-0.2,0.1l-0.4,0.2l-0.2,0.1c-0.6,0.3-1,0.5-1,0.5l-8.1,3.9L297,161z"
			/>
		<path id="Path_69417" class="st1" d="M377.8,57.7c0,42.9-51.2,74.9-67.6,84.1c-0.5,0.3-0.9,0.5-1.4,0.8l-0.2,0.1
			c-0.8,0.4-1.5,0.8-2.1,1.1l-0.2,0.1L306,144l-0.2,0.1l-0.6,0.3c0,0-72.6-35.6-72.6-86.7c0-20.4,17.4-39.2,38.8-39.2
			c1.8,0,3.5,0.1,5.3,0.3l0,0c11.8,1.4,22.3,8.2,28.5,18.4C312,25.7,325,18.5,339,18.5C360.4,18.5,377.8,37.4,377.8,57.7z"/>
		<path id="Path_69418" class="st0" d="M188.4,42.9v31.5c0,10.7-5.5,16.1-16.5,16.1H24.1c-1.7-0.1-3.3,0.1-4.9,0.7
			C17.8,91.8,17,94,17,97.7v8.8h62.7l8.4,0.7c7.7-0.1,11.7,4.8,12.1,14.8c-0.2,0.2-4.6,0.4-13.2,0.4H0V86.6
			c0-7.9,4.4-11.8,13.2-11.8h96.9V42.9h16.3v31.6H141V42.9h16.3v31.6h7.7c4.8,0,7.3-2.4,7.3-7.3V42.9H188.4z"/>
		<path id="Path_69419" class="st0" d="M462.5,22.2c-3.2-3.2-8.3-3.2-11.5,0c-1.6,1.5-2.4,3.5-2.4,5.7c0,4.5,3.6,8.1,8.1,8.1
			s8.1-3.6,8.1-8.1C464.9,25.7,464.1,23.7,462.5,22.2L462.5,22.2z"/>
		<path id="Path_69420" class="st0" d="M627.2,42.6V67c0,3.6-1,5.8-3,6.7c-0.9,0.4-3.4,0.6-7.3,0.6h-13.6V54.5c0-8-4.3-12-13-12
			h-23.8c-8.6,0-13,4-13,12v19.8h-24.7V42.6h-16.2v31.6h-23.8V42.6h-16.2v48.5c0.1,4.3-1.7,8.4-4.8,11.4c-6.3,6.3-16.5,6.3-22.8,0
			c-3-3-4.8-7.2-4.8-11.4V42.6h-16.3v48.9c-0.1,8.6,3.4,16.9,9.7,22.8c6.1,6.1,14.5,9.5,23.1,9.4c8.7,0.1,17-3.5,22.7-10
			c6.1-6.3,9.4-14.7,9.3-23.5h138c11,0,16.5-5.4,16.5-16.1V42.6H627.2z M586.7,70.3c0,2.6-1.4,3.9-4.2,3.9h-8.4
			c-2.8,0-4.2-1.3-4.2-3.9v-8.1c0-2.6,1.4-3.8,4.2-3.9h8.4c2.8,0,4.2,1.3,4.2,3.9V70.3z"/>
		<path id="Path_69421" class="st0" d="M535.3,100.9c-1.5-1.5-3.6-2.4-5.8-2.4c-2.1,0-4.2,0.8-5.7,2.4c-3.1,3.2-3.1,8.3,0,11.5
			c1.5,1.6,3.5,2.4,5.7,2.4c4.5,0,8.2-3.7,8.1-8.2C537.6,104.5,536.8,102.4,535.3,100.9L535.3,100.9z M516.8,100.9
			c-3.1-3.1-8.1-3.2-11.3-0.1c-0.1,0-0.1,0.1-0.1,0.1c-3.2,3.2-3.2,8.3,0,11.5c3.1,3.1,8.1,3.2,11.3,0.1c0.1,0,0.1-0.1,0.1-0.1
			C519.9,109.2,519.9,104.1,516.8,100.9L516.8,100.9z"/>
		<path id="Path_69422" class="st0" d="M594.1,22.8c-1.5-1.5-3.6-2.4-5.8-2.4c-2.1,0-4.2,0.8-5.7,2.4c-3.1,3.2-3.1,8.3,0,11.5
			c1.5,1.6,3.5,2.4,5.7,2.4c4.5,0,8.1-3.6,8.1-8v-0.1C596.5,26.4,595.7,24.3,594.1,22.8L594.1,22.8z M575.6,22.8
			c-3.1-3.1-8.1-3.2-11.3-0.1c-0.1,0-0.1,0.1-0.1,0.1c-3.2,3.2-3.2,8.3,0,11.5c3.1,3.1,8.1,3.2,11.3,0.1c0.1,0,0.1-0.1,0.1-0.1
			C578.8,31.1,578.8,26,575.6,22.8z"/>
		<path id="Path_69423" class="st0" d="M650.5,101.1c-1.5-1.5-3.6-2.4-5.8-2.4c-2.1,0-4.2,0.8-5.7,2.4c-3.1,3.2-3.1,8.3,0,11.5
			c1.5,1.6,3.5,2.4,5.7,2.4c4.5,0,8.2-3.7,8.1-8.2C652.9,104.7,652,102.6,650.5,101.1L650.5,101.1z M632,101.1
			c-3.1-3.1-8.1-3.2-11.3-0.1l-0.1,0.1c-3.2,3.2-3.2,8.3,0,11.5c3.1,3.1,8.1,3.2,11.3,0.1l0.1-0.1
			C635.1,109.4,635.1,104.3,632,101.1z"/>
		<path id="Path_69424" class="st0" d="M695,90.2h-16.3V6.1H695V90.2z"/>
		<path id="Path_69425" class="st0" d="M739.2,107.7c0,4.7-1.3,8.5-3.9,11.4c-2.7,3-6.4,4.5-11.1,4.5h-22.7v-16.7l14.1-0.1
			c2.9,0,4.8-0.8,5.9-2.3c0.9-1.2,1.3-3.4,1.3-6.4V42.6h16.4V107.7z"/>
		<path id="Path_69426" class="st0" d="M906.3,96.5c-0.6-0.2-1.2-0.3-1.8-0.3c-2.9,0-6,2.2-9.4,6.6c-3.2,4-4.7,7.8-4.7,11.4
			c0,3.7,1.8,5.6,5.3,5.6c1.6,0,3-0.8,3.9-2.1c0.3-0.4,0.6-0.8,1-1.1c0.6-0.6,1-1.3,1.3-2c0.4-0.9,0.5-1.8,0.6-2.7
			c0-1-0.1-1.9-0.3-2.8c-0.7-2.9,0.2-6,2.3-8.1l0.5-0.5c1.3-1.3,1.9-2.2,1.9-2.6C906.8,97.1,906.7,96.7,906.3,96.5z"/>
		<path id="Path_69427" class="st0" d="M898.7,42.7v24.4c0,2.8-0.1,5.6-0.4,8.4h-13.6c0,0,0-10.9,0-32.6h-14.8l-0.1,31.8l-11.6-0.2
			l-7.6-0.1V54.6c0-8-4.3-11.9-13-11.9h-36.9v31.7H782c-5.5,0-8.2-2.4-8.2-7.2v-61h-16.3v68.4c0,10.5,5.5,15.8,16.4,15.8h124.6
			c11,0,16.5-5.4,16.5-16.1V42.7H898.7z M834.1,70.3c0,2.6-1.4,3.9-4.2,3.9h-12.3V58.5h12.3c2.8,0,4.2,1.3,4.2,3.8V70.3z"/>
	</g>
</g>
<g id="Path_69428" transform="translate(-422.534 0)">
	<path class="st1" d="M727.7,155.6l-4.4-2.2c-0.8-0.4-19.5-9.7-38.3-25.5c-11.3-9.5-20.3-19.5-26.9-29.6
		c-8.6-13.3-12.9-26.9-12.9-40.5c0-12.4,5.2-24.9,14.2-34.2c9.4-9.7,21.7-15,34.6-15c1.9,0,3.7,0.1,5.5,0.3h0.5l0,0l0.7,0.1
		c7.3,1,14.4,3.6,20.6,7.5l1.8,1.2l4.9,3.4l4.9-3.4c8.5-6,18.5-9.1,28.9-9.1c13,0,25.3,5.3,34.7,15c9,9.3,14.2,21.8,14.2,34.2
		c0,11.6-3.2,23.3-9.5,34.8c-5.1,9.2-12.2,18.3-21.2,27.1c-15.6,15.2-33,25.9-42.1,31l-1.2,0.6l-2.7,1.5l-1.4,0.7L727.7,155.6z"/>
	<path class="st2" d="M730.7,147.6 M727.7,165l-8.2-4c-0.8-0.4-20.4-10.1-40.1-26.7c-11.9-10.1-21.5-20.7-28.6-31.5
		c-9.5-14.7-14.3-29.9-14.3-45.1c0-14.6,6-29.2,16.6-40.1C664.2,6.2,678.7,0,694,0c2.1,0,4.2,0.1,6.3,0.3h0.1l1.2,0.2
		c8.6,1.1,16.8,4.1,24.1,8.8c0.7,0.4,1.3,0.9,2,1.4c9.9-7,21.7-10.7,33.8-10.7c15.3,0,29.8,6.3,40.8,17.6
		c10.5,10.9,16.6,25.5,16.6,40.1c0,13.1-3.5,26.2-10.5,38.9c-5.5,9.9-13.1,19.7-22.7,29c-16.2,15.9-34.5,27.1-43.9,32.3
		c-0.5,0.3-1,0.6-1.5,0.8l-0.3,0.2c-0.9,0.5-1.7,0.9-2.3,1.2l-0.8,0.4c-0.6,0.3-1,0.5-1,0.5L727.7,165z"/>
</g>
</svg>
