<?xml version="1.0" encoding="utf-8"?>
<!-- Generator: Adobe Illustrator 25.2.3, SVG Export Plug-In . SVG Version: 6.00 Build 0)  -->
<svg version="1.1" id="Layer_1" xmlns="http://www.w3.org/2000/svg" xmlns:xlink="http://www.w3.org/1999/xlink" x="0px" y="0px"
	 viewBox="0 0 132.4 118" style="enable-background:new 0 0 132.4 118;" xml:space="preserve">
<style type="text/css">
	.st0{fill:#04AF76;}
	.st1{fill:#AAB4BD;}
	.st2{fill:#55697A;}
	.st3{fill:#FFB632;}
	.st4{fill:#FFF6E1;}
</style>
<g id="Invest" transform="translate(-730 -780.639)">
	<g id="stats" transform="translate(730 781)">
		<g id="Group_9673" transform="translate(14.531 51.268)">
			<path id="Path_69476" class="st0" d="M22.8,26.9H2.1c-1-0.1-1.9,0.6-2.1,1.6v36.2c0.1,1,1.1,1.7,2.1,1.6h20.8
				c1,0.1,1.9-0.6,2.1-1.6V28.5C24.8,27.5,23.9,26.8,22.8,26.9z"/>
			<path id="Path_69477" class="st0" d="M6.2,64.7V28.5c0.1-1,1-1.8,2.1-1.6H2.1c-1-0.1-1.9,0.6-2.1,1.6v36.2c0.1,1,1.1,1.7,2.1,1.6
				h6.2C7.3,66.5,6.4,65.7,6.2,64.7z"/>
			<path id="Path_69478" class="st0" d="M62,18.4H41.3c-1-0.1-1.9,0.6-2.1,1.7v44.7c0.1,1,1,1.8,2.1,1.7H62c1,0.1,1.9-0.6,2.1-1.7
				V20C64,19,63.1,18.3,62,18.4z"/>
			<path id="Path_69479" class="st0" d="M45.5,64.7V20c0.1-1,1-1.8,2.1-1.7h-6.2c-1-0.1-1.9,0.6-2.1,1.7v44.7c0.1,1,1,1.8,2.1,1.7
				h6.2C46.5,66.5,45.6,65.7,45.5,64.7z"/>
			<path id="Path_69480" class="st0" d="M101.2,0H80.5c-1-0.1-2,0.6-2.1,1.7v63.1c0.1,1,1,1.8,2.1,1.7h20.8c1,0.1,2-0.6,2.1-1.7V1.7
				C103.2,0.6,102.3-0.1,101.2,0z"/>
			<path id="Path_69481" class="st0" d="M84.7,64.7V1.7c0.1-1,1-1.8,2.1-1.7h-6.2c-1-0.1-1.9,0.6-2.1,1.7v63.1c0.1,1,1,1.8,2.1,1.7
				h6.2C85.8,66.5,84.8,65.7,84.7,64.7z"/>
		</g>
		<path id="Path_69482" class="st1" d="M130.3,117.6H2.1c-1.1,0-2.1-0.9-2.1-2.1c0-1.1,0.9-2.1,2.1-2.1h128.2c1.1,0,2.1,0.9,2.1,2.1
			C132.4,116.7,131.4,117.6,130.3,117.6z"/>
		<path id="Path_69483" class="st2" d="M124.7,1c-0.9-0.8-2.1-1.2-3.2-1L105,2.1c-2.3,0.3-3.9,2.4-3.6,4.6c0.3,2.3,2.4,3.9,4.6,3.6
			l6.2-0.8c-21,26.3-46.9,39.7-65.5,46.4c-21.7,7.8-38.4,8.4-38.6,8.4c-2.3,0.1-4.1,2-4,4.3c0.1,2.2,1.9,4,4.1,4h0.1
			c0.7,0,18-0.6,40.8-8.8C62.4,59.2,75,52.7,86.5,44.8c11.8-8.2,22.3-17.9,31.3-29v5c0,2.3,1.9,4.1,4.1,4.1c2.3,0,4.1-1.9,4.1-4.1
			V4.2C126.1,3,125.6,1.8,124.7,1z"/>
	</g>
	<g id="Group_9674" transform="translate(734.69 780.639)">
		<circle id="Ellipse_1" class="st3" cx="28.4" cy="28.4" r="28.4"/>
		<path id="Path_42" class="st3" d="M8.2,8.2c11.1-11,29.1-10.9,40.1,0.2c10.9,11.1,10.9,28.9,0,39.9"/>
		<path id="Path_43" class="st4" d="M26.2,51.5v-6.1c-3.4,0-6.7-0.8-9.8-2.3l1.6-6.3c2.7,1.5,5.7,2.4,8.8,2.3c2.9,0,5.1-1.4,5.1-3.5
			s-1.8-3.5-5.9-4.7c-5.9-2-9.6-4.7-9.6-10c0-4.7,2.9-8.6,9.6-9.8V6.1h4.3v4.7c2.8,0,5.6,0.6,8.2,1.8L37,18.6
			c-2.4-1.2-5.1-1.9-7.8-2c-3.5,0-4.7,1.6-4.7,2.9c0,1.8,2,2.9,6.5,4.7c6.5,2.3,8.8,5.1,8.8,10.2c0,4.7-3.3,9-9.8,10.2v6.4h-4.1
			L26.2,51.5z"/>
	</g>
</g>
</svg>
