<?xml version="1.0" encoding="utf-8"?>
<!-- Generator: Adobe Illustrator 25.2.3, SVG Export Plug-In . SVG Version: 6.00 Build 0)  -->
<svg version="1.1" id="Layer_1" xmlns="http://www.w3.org/2000/svg" xmlns:xlink="http://www.w3.org/1999/xlink" x="0px" y="0px"
	 viewBox="0 0 102.7 120" style="enable-background:new 0 0 102.7 120;" xml:space="preserve">
<style type="text/css">
	.st0{fill:#E3E3E3;}
	.st1{fill:#F25555;}
	.st2{fill:#FFFFFF;}
	.st3{fill:#23A6C6;}
	.st4{fill:#B4B0B0;}
</style>
<g id="News" transform="translate(0 -1.84)">
	<path id="Path_34653" class="st0" d="M93.3,121.8H9.2c-5.1,0-9.2-4.1-9.2-9.2V11c0-5.1,4.1-9.2,9.2-9.2h84.1c5.1,0,9.2,4.1,9.2,9.2
		v101.6C102.5,112.7,104.7,121.8,93.3,121.8z"/>
	<rect id="Rectangle_73" x="10.8" y="13.2" class="st1" width="80.5" height="37.1"/>
	<path id="Path_34655" class="st1" d="M17.9,41.7c3-0.5,5-3.5,5-6.8v-8.4c-0.1-2.9,2.2-5.4,5.1-5.5H28c0.1,0,0.2,0,0.3,0
		c2.7-0.1,5,2.1,5.1,4.8c0,0.1,0,0.2,0,0.3v5.2c0,3.3,2.1,6.3,5,6.8c3.8,0.7,7-2.5,7-6.5v-1.5c-0.1-2.9,2.2-5.4,5.1-5.5c0,0,0,0,0,0
		h0.3H51c3.1,0.1,5.5,2.7,5.4,5.8c0,0,0,0,0,0v2.5c0,3.3,2.1,6.3,5,6.8c3.8,0.7,7-2.5,7-6.5V23.4c-0.1-3.1,2.3-5.7,5.3-5.8
		c0,0,0,0,0,0h0.1c3.1,0.1,5.5,2.7,5.4,5.8c0,0,0,0,0,0v5.1c0,3.3,2.1,6.3,5,6.8c3.8,0.7,7-2.5,7-6.5V13.2H10.8v22
		C10.8,39.2,14.1,42.4,17.9,41.7z"/>
	<g id="Group_363" transform="translate(18.476 21.767)">
		<path id="Path_34656" class="st2" d="M0,16.5V0.3h3.2l6.6,10.8V0.3h3v16.2H9.6L3,5.9v10.6L0,16.5L0,16.5z"/>
		<path id="Path_34657" class="st2" d="M16.3,16.5V0.3h12V3h-8.8v3.6h8.1v2.7h-8.1v4.4h9.1v2.7L16.3,16.5L16.3,16.5z"/>
		<path id="Path_34658" class="st2" d="M33.8,16.5L29.9,0.3h3.4l2.4,11.2l3-11.2h3.9l2.8,11.3l2.5-11.3h3.3l-3.9,16.2h-3.5L40.6,4.4
			l-3.2,12.1L33.8,16.5L33.8,16.5z"/>
		<path id="Path_34659" class="st2" d="M52,11.2l3.2-0.3c0.1,0.9,0.5,1.7,1.2,2.4c0.7,0.5,1.5,0.8,2.4,0.8c0.8,0.1,1.7-0.2,2.4-0.7
			c0.5-0.4,0.8-0.9,0.8-1.6c0-0.4-0.1-0.7-0.3-1c-0.3-0.3-0.7-0.6-1.2-0.7c-0.4-0.1-1.3-0.4-2.6-0.7c-1.3-0.2-2.6-0.8-3.7-1.6
			c-1.6-1.4-2-3.8-0.8-5.6c0.5-0.7,1.2-1.3,2-1.6c1-0.4,2.1-0.6,3.2-0.6c1.6-0.1,3.3,0.4,4.6,1.3c1,0.9,1.6,2.2,1.6,3.6l-3.3,0.1
			c-0.1-0.7-0.4-1.3-0.9-1.8c-0.6-0.4-1.3-0.6-2.1-0.5c-0.8,0-1.6,0.2-2.2,0.6c-0.3,0.2-0.5,0.6-0.5,1c0,0.4,0.2,0.8,0.5,1
			c0.9,0.5,1.9,0.9,3,1.1c1.2,0.2,2.4,0.6,3.5,1.2c0.7,0.4,1.4,0.9,1.8,1.7c0.9,1.6,0.9,3.6-0.1,5.2c-0.5,0.8-1.3,1.5-2.2,1.8
			c-1.1,0.4-2.3,0.6-3.5,0.6c-1.7,0.1-3.4-0.4-4.7-1.4C52.8,14.3,52.1,12.8,52,11.2z"/>
	</g>
	<rect id="Rectangle_74" x="10.8" y="55.1" class="st3" width="34.9" height="40.6"/>
	<path id="Path_34660" class="st3" d="M33.2,92.2c-0.3-1.5-1.6-2.6-3.2-2.5h-3.9c-1.4,0-2.5-1.1-2.5-2.6c0,0,0,0,0,0v0
		c0-0.1,0-0.1,0-0.2c-0.1-1.3,0.9-2.5,2.3-2.6c0,0,0.1,0,0.1,0h2.4c1.5,0,2.9-1,3.2-2.5c0.3-1.7-0.8-3.2-2.5-3.5c-0.2,0-0.3,0-0.5,0
		H28c-1.4,0-2.5-1.1-2.5-2.5c0,0,0,0,0,0v-0.2c0-1.5,1.2-2.7,2.7-2.7c0,0,0,0,0,0h1.2c1.5,0,2.9-1,3.2-2.5c0.3-1.7-0.8-3.2-2.5-3.5
		c-0.2,0-0.3,0-0.5,0h-4.7c-1.5,0-2.7-1.2-2.7-2.7c0,0,0,0,0,0v-0.1c0-1.5,1.2-2.7,2.7-2.7c0,0,0,0,0,0h2.4c1.5,0,2.9-1,3.2-2.5
		c0.3-1.7-0.8-3.2-2.5-3.5c-0.2,0-0.3,0-0.5,0H10.7v40.6h19.6c1.7,0,3-1.4,3-3C33.3,92.5,33.3,92.3,33.2,92.2z"/>
	<g id="Group_364" transform="translate(10.663 68.676)">
		<rect id="Rectangle_75" x="38.6" y="0" class="st4" width="42" height="8.1"/>
		<rect id="Rectangle_76" x="38.6" y="16.6" class="st4" width="42" height="8.1"/>
		<rect id="Rectangle_77" x="0" y="33.1" class="st4" width="80.6" height="8.1"/>
	</g>
</g>
</svg>
