<?xml version="1.0" encoding="utf-8"?>
<!-- Generator: Adobe Illustrator 25.2.3, SVG Export Plug-In . SVG Version: 6.00 Build 0)  -->
<svg version="1.1" id="Layer_1" xmlns="http://www.w3.org/2000/svg" xmlns:xlink="http://www.w3.org/1999/xlink" x="0px" y="0px"
	 viewBox="0 0 158.2 128.1" style="enable-background:new 0 0 158.2 128.1;" xml:space="preserve">
<style type="text/css">
	.st0{fill:#F05540;stroke:#FFFFFF;stroke-width:10;stroke-linecap:round;}
	.st1{fill:#F05540;}
	.st2{fill:#F3705A;}
	.st3{fill:#FFD15C;}
	.st4{fill:#F7B64C;}
	.st5{fill:#415A6B;}
	.st6{fill:#344A5E;}
	.st7{fill:#8AD7F8;}
	.st8{fill:#DFE7F4;}
	.st9{fill:#C7CFE1;}
	.st10{fill:#7ED8F6;}
	.st11{fill:#334973;}
	.st12{fill:#1F3259;}
</style>
<g id="Search_Property" transform="translate(5.15 5)">
	<g id="Search-property">
		<path id="Path_1420" class="st0" d="M10.2,115.9V65.3c-3.9,1.4-8.3-0.6-9.7-4.5c0,0,0-0.1,0-0.1c-1-2.8-0.3-5.9,1.8-8L52.5,2.2
			c3-2.9,7.8-2.9,10.8,0l23.4,23.4v-8.2h-5.1V4.8h23.4v12.5H100v21.4l13.8,13.8c3,3,3,7.8,0,10.8c-2.3,2.4-6,3-8.9,1.4v51
			L10.2,115.9z"/>
		<g id="house" transform="translate(0.047 0.173)">
			<rect id="Rectangle_776" x="86.3" y="16.8" class="st1" width="13.4" height="23.3"/>
			<rect id="Rectangle_777" x="81.2" y="4.9" class="st2" width="23.6" height="12.6"/>
			<path id="Path_1415" class="st3" d="M10.2,62.5v53.3h94.5V62.5L57.4,15.3l0,0C39.1,33.8,28.7,44.2,10.2,62.5z"/>
			<path id="Path_1416" class="st4" d="M104.8,62.9L57.6,15.3C48.2,24.5,41,31.8,33.8,39.1L10.2,62.9v10.9l47.2-47.6l47.2,47.6v1.5
				l0,0V62.9H104.8z"/>
			<path id="Path_1417" class="st5" d="M49.1,115.8H20.5V87.6c0-7.9,6.4-14.3,14.3-14.3l0,0l0,0c7.9,0,14.3,6.4,14.3,14.3l0,0V115.8
				z"/>
			<rect id="Rectangle_778" x="57.2" y="73.2" class="st6" width="37.4" height="32.8"/>
			<g id="Group_1902" transform="translate(61.102 77.139)">
				<rect id="Rectangle_779" x="0" y="0" class="st7" width="12.9" height="25"/>
				<rect id="Rectangle_780" x="16.8" y="0" class="st7" width="12.9" height="25"/>
			</g>
			<path id="Path_1418" class="st2" d="M113.6,53L63.2,2.2c-3-2.9-7.8-2.9-10.8,0L2.2,53c-2.9,3.1-2.9,7.8,0,10.9
				c3,2.9,7.8,2.9,10.8,0l44.9-45.2l44.9,45.2c3,3,7.9,3,10.9,0C116.6,60.8,116.6,56,113.6,53z"/>
		</g>
	</g>
	<g id="magnifying-glass_1_" transform="translate(68.947 38.948)">
		<g id="Group_9692" transform="translate(48.07 48.071)">
			<path id="Path_69486" class="st8" d="M0.7,4.2L9,12.5c1,1,2.5,0.9,3.5,0c1-1,1-2.5,0-3.5L4.2,0.7c-1-1-2.5-1-3.5,0l0,0
				C-0.3,1.6-0.6,3,0.2,4C0.3,4.1,0.4,4.3,0.7,4.2z"/>
		</g>
		<path id="Path_69487" class="st9" d="M48.8,52.3l8.2,8.2c1,1,2.5,1,3.5,0L48.8,48.8C47.8,49.8,47.8,51.3,48.8,52.3z"/>
		<g id="Group_9694" transform="translate(2.464 2.464)">
			<g id="Group_9693">
				<path id="Path_69488" class="st10" d="M0,28.2c0,15.6,12.6,28.2,28.2,28.2s28.2-12.6,28.2-28.2S43.8,0,28.2,0
					c-7.5,0-14.7,3-20,8.3C3,13.5,0,20.7,0,28.2z"/>
			</g>
		</g>
		<path id="Path_69489" class="st10" d="M2.5,30.6c0,15.6,12.6,28.2,28.2,28.2c7.5,0,14.6-3,19.9-8.2L10.7,10.7
			C5.4,16,2.5,23.2,2.5,30.6z"/>
		<g id="Group_9698" transform="translate(0)">
			<g id="Group_9697" transform="translate(0)">
				<path id="Path_69491" class="st11" d="M9,9C20.9-3,40.3-3,52.3,9c11.9,12,11.9,31.3,0,43.3S20.9,64.2,9,52.3
					c-5.7-5.7-9-13.5-9-21.6C0,22.5,3.2,14.7,9,9z M30.6,56.3c14.2,0,25.7-11.5,25.7-25.7C56.3,16.4,44.8,4.9,30.6,5
					C16.4,5,4.9,16.4,4.9,30.6C4.8,44.7,16.2,56.2,30.3,56.3C30.4,56.3,30.5,56.3,30.6,56.3z"/>
			</g>
		</g>
		<path id="Path_69492" class="st12" d="M0,30.6c0,16.9,13.7,30.6,30.6,30.6c8.1,0,15.9-3.2,21.7-9l-3.5-3.5c-10,10-26.3,10-36.3,0
			c-10-10-10-26.3,0-36.3L9,9C3.2,14.7,0,22.5,0,30.6z"/>
		<g id="Group_9699" transform="translate(52.835 52.834)">
			<path id="Path_69493" class="st12" d="M0.7,11.2l19.4,19.4c1,1,2.5,1,3.5,0l3.5-3.5l3.5-3.5c1-1,1-2.5,0-3.5L11.2,0.7
				c-1-1-2.5-1-3.5,0L4.2,4.2L0.7,7.7C-0.2,8.7-0.2,10.2,0.7,11.2C0.7,11.2,0.7,11.2,0.7,11.2z"/>
		</g>
		<path id="Path_69494" class="st12" d="M53.6,64l19.4,19.4c1,1,2.5,1,3.5,0l3.5-3.5L57,57l-3.5,3.5C52.6,61.5,52.6,63,53.6,64
			C53.6,64,53.6,64,53.6,64z"/>
	</g>
</g>
</svg>
