<?xml version="1.0" encoding="utf-8"?>
<!-- Generator: Adobe Illustrator 25.2.3, SVG Export Plug-In . SVG Version: 6.00 Build 0)  -->
<svg version="1.1" id="Layer_1" xmlns="http://www.w3.org/2000/svg" xmlns:xlink="http://www.w3.org/1999/xlink" x="0px" y="0px"
	 viewBox="0 0 130 118" style="enable-background:new 0 0 130 118;" xml:space="preserve">
<style type="text/css">
	.st0{fill:#FFB125;}
	.st1{fill:#CCDFED;}
	.st2{fill:#FF4C4C;}
	.st3{fill:#1D4859;}
	.st4{fill:#FED9A8;}
	.st5{fill:#F4C892;}
	.st6{fill:#2D5871;}
</style>
<g id="Sell_Rent_Out" transform="translate(0 -22.098)">
	<path id="Path_69441" class="st0" d="M42.6,56.2l-13.2,0l0-22.3c0-0.6,0.5-1.1,1.1-1.1l11,0c0.6,0,1.1,0.5,1.1,1.1L42.6,56.2z"/>
	<path id="Path_69442" class="st0" d="M42.6,33.9c0-0.6-0.5-1.1-1.1-1.1c0,0,0,0,0,0l-6.5,0c0.6,0,1,0.5,1,1.1l0,22.3l-6.6,0v0
		l13.2,0L42.6,33.9z"/>
	<path id="Path_69443" class="st1" d="M64.5,32.4L29.1,65.7l0.1,50.7c0,1.3,1.1,2.4,2.4,2.4c0,0,0,0,0,0l66.1-0.1
		c1.3,0,2.4-1.1,2.4-2.4c0,0,0,0,0,0L100,65.6L64.5,32.4z"/>
	<path id="Path_69444" class="st1" d="M100,65.6L64.5,32.4l-5.8,5.5l29.6,27.8l0.1,50.7c0,1.3-1.1,2.4-2.4,2.4h11.7
		c1.3,0,2.4-1.1,2.4-2.4c0,0,0,0,0,0L100,65.6z"/>
	<path id="Path_69445" class="st2" d="M112.5,76.8c-1.2,0-2.4-0.5-3.3-1.3L64.5,33.6L20,75.6c-2,1.8-5.1,1.7-6.9-0.3
		c-1.8-1.9-1.7-5,0.2-6.8l47.9-45.1c1.9-1.8,4.8-1.8,6.7,0l48,45c2,1.8,2.1,4.9,0.2,6.9C115.1,76.2,113.9,76.8,112.5,76.8
		L112.5,76.8z"/>
	<path id="Path_69446" class="st2" d="M116.1,69.4c-1.8,2-4.9,2.1-6.9,0.2c0,0,0,0,0,0L64.5,27.8L20,69.8c-2,1.8-5,1.8-6.9-0.2
		c-0.1-0.1-0.2-0.3-0.4-0.4c-1.6,2.1-1.2,5.2,1,6.8c1.9,1.4,4.5,1.3,6.3-0.3l44.5-42l44.7,41.8c2,1.8,5,1.7,6.9-0.2
		c1.6-1.7,1.8-4.4,0.3-6.3C116.3,69.1,116.2,69.3,116.1,69.4z"/>
	<path id="Path_69447" class="st3" d="M73.7,73.6l-18.2,0c-0.9,0-1.5,0.7-1.5,1.5l0.1,43.1l21.3,0l-0.1-43.1
		C75.2,74.3,74.5,73.6,73.7,73.6C73.7,73.6,73.7,73.6,73.7,73.6z"/>
	<path id="Path_69448" class="st3" d="M75.2,75.2c0-0.9-0.7-1.5-1.5-1.5l-10.3,0c0.6,0.2,1.1,0.8,1.1,1.5l0.1,43.1l10.7,0L75.2,75.2
		z"/>
	<path id="Path_69449" class="st4" d="M120.1,96.3l-26.8,18l-8-0.4l-0.3-3.1c-0.5-4.7-4.1-8.4-8.7-9.1l-21.4-2.5
		c-4.9-0.7-9.7-2.4-14-4.9l0,0c-5.9-3.4-12.6-5.3-19.4-5.3H6v35.3l40.8,15.5c1.5,0.4,3.2,0.6,4.7,0.3h0l41.1-5.9
		c3.2-0.5,6.1-1.8,8.6-3.9l26.6-23.9c2.4-2.1,2.8-5.7,1-8.3l0,0C126.9,95.1,123,94.3,120.1,96.3z"/>
	<g id="Group_9664" transform="translate(5.969 98.558)">
		<path id="Path_69450" class="st4" d="M123.3,0L97,22.1c-2.5,2-6.6,3.4-9.8,3.9l-41.6,3h0c-1.6,0.2-3.2,0.1-4.7-0.3L0,13.2v12.5
			l40.8,15.5c0.8,0.2,1.6,0.4,2.4,0.4c0.2,0,0.4,0,0.6,0c0.6,0,1.2,0,1.8-0.1h0l41.1-5.9c1-0.2,2-0.4,2.9-0.7
			c0.2-0.1,0.4-0.1,0.6-0.2c0.9-0.3,1.8-0.8,2.7-1.3c0.2-0.1,0.3-0.2,0.5-0.3c0.7-0.4,1.3-0.9,2-1.4l26.6-23.9
			C124.1,5.8,124.7,2.6,123.3,0z"/>
		<path id="Path_69451" class="st5" d="M82.4,15.4l-45.2-1.8c-0.2,0-0.4-0.1-0.6-0.2l-2.4-1.5c-0.6-0.4-0.8-1.1-0.4-1.7
			C34,9.8,34.5,9.5,35,9.6L82.4,15.4z"/>
	</g>
	<path id="Path_69452" class="st6" d="M11.2,136.2H5.1c-2.8,0-5.1-2.3-5.1-5.1V85.9c0-2.8,2.3-5.1,5.1-5.1h6.1
		c2.8,0,5.1,2.3,5.1,5.1v45.2C16.2,133.9,14,136.2,11.2,136.2z"/>
	<path id="Path_69453" class="st6" d="M11.2,80.8H5.1c-0.3,0-0.7,0-1,0.1c2.4,0.5,4.1,2.6,4.1,5v45.2c0,2.4-1.7,4.5-4.1,5
		c0.3,0.1,0.7,0.1,1,0.1h6.1c2.8,0,5.1-2.3,5.1-5.1V85.9C16.2,83.1,14,80.8,11.2,80.8C11.2,80.8,11.2,80.8,11.2,80.8z"/>
</g>
</svg>
